<?xml version="1.0" encoding="UTF-8"?>
<svg width="6px" height="29px" viewBox="0 0 6 29" version="1.1" xmlns="http://www.w3.org/2000/svg" xmlns:xlink="http://www.w3.org/1999/xlink">
    <title>点</title>
    <g id="控件" stroke="none" stroke-width="1" fill="none" fill-rule="evenodd">
        <g id="点" fill="#AEAFB0" fill-rule="nonzero">
            <path d="M3,17.6666667 C3.55,17.6666667 4,18.1166667 4,18.6666667 C4,19.2166667 3.55,19.6666667 3,19.6666667 C2.45,19.6666667 2,19.2166667 2,18.6666667 C2,18.1166667 2.45,17.6666667 3,17.6666667 Z M3,26 C3.55,26 4,26.45 4,27 C4,27.55 3.55,28 3,28 C2.45,28 2,27.55 2,27 C2,26.45 2.45,26 3,26 Z M2,10.3333333 C2,10.8833333 2.45,11.3333333 3,11.3333333 C3.55,11.3333333 4,10.8833333 4,10.3333333 C4,9.78333333 3.55,9.33333333 3,9.33333333 C2.45,9.33333333 2,9.78333333 2,10.3333333 Z M2,2 C2,2.55 2.45,3 3,3 C3.55,3 4,2.55 4,2 C4,1.45 3.55,1 3,1 C2.45,1 2,1.45 2,2 Z" id="形状备份-72"></path>
        </g>
    </g>
</svg>