<?xml version="1.0" standalone="no"?><!DOCTYPE svg PUBLIC "-//W3C//DTD SVG 1.1//EN" "http://www.w3.org/Graphics/SVG/1.1/DTD/svg11.dtd"><svg t="1663831607696" class="icon" viewBox="0 0 1024 1024" version="1.1" xmlns="http://www.w3.org/2000/svg" p-id="6182" xmlns:xlink="http://www.w3.org/1999/xlink" width="200" height="200"><path d="M384 448h83.2v256H384zM556.8 448H640v256H556.8z" fill="#6d7383" p-id="6183"></path><path d="M723.2 236.8v-128c0-25.6-19.2-44.8-38.4-44.8H339.2c-19.2 0-38.4 19.2-38.4 44.8v128H83.2V320h83.2v556.8c0 25.6 19.2 44.8 44.8 44.8h595.2c25.6 0 44.8-19.2 44.8-44.8V320h83.2V236.8h-211.2zM384 147.2h256v83.2H384V147.2zM768 832H256V320h512v512z" fill="#6d7383" p-id="6184"></path></svg>