<?xml version="1.0" encoding="UTF-8"?>
<svg width="24px" height="24px" viewBox="0 0 24 24" version="1.1" xmlns="http://www.w3.org/2000/svg" xmlns:xlink="http://www.w3.org/1999/xlink">
    <title>Icon/news-normal@1x</title>
    <g id="Icon/news-normal" stroke="none" stroke-width="1" fill="none" fill-rule="evenodd">
        <g id="消息-信息" transform="translate(3.000000, 4.000000)" fill="#6D7383" fill-rule="nonzero">
            <path d="M7.91022564,14.4295769 C8.03204359,14.3501 8.15581795,14.2823436 8.29615897,14.2253744 C8.51240513,14.1376051 8.74512821,14.0854641 9,14.0854641 C12.9056051,14.0854641 16,11.3348949 16,8.04274103 C16,4.75058718 12.9056051,2 9,2 C5.09439487,2 2,4.75056923 2,8.04274103 C2,10.3446103 3.51977179,12.4467103 5.91495641,13.4667718 C6.55586923,13.7397359 6.92738974,14.3165718 6.98825385,14.9457282 C6.99374615,15.0025179 6.99685128,15.0579795 6.99773077,15.1124538 C7.14762051,15.0140949 7.29191026,14.9043385 7.49796154,14.7388154 C7.70584359,14.5718205 7.78004359,14.5145282 7.91022564,14.4295769 Z M5.1160125,15.2187563 C2.0898375,13.9299375 0,11.1819 0,8 C0,3.58171875 4.02943125,0 9,0 C13.9705687,0 18,3.58171875 18,8 C18,12.418275 13.9705687,16 9,16 C8.7474375,16 8.38655625,16.4949188 7.5,17 C6.6315,17.4948188 5.74228125,18 5,18 C3.5,18 5.71119375,15.4722375 5.1160125,15.2187563 Z M11.325,7.2375 C12.45,7.2375 12.45,5.55 11.325,5.55 L6.675,5.55 C5.55,5.55 5.55,7.2375 6.675,7.2375 L11.325,7.2375 Z M10.05,10.6875 C11.175,10.6875 11.175,9 10.05,9 L6.675,9 C5.55,9 5.55,10.6875 6.675,10.6875 L10.05,10.6875 Z" id="形状"></path>
        </g>
    </g>
</svg>