<?xml version="1.0" encoding="UTF-8"?>
<svg width="28px" height="26px" viewBox="0 0 28 26" version="1.1" xmlns="http://www.w3.org/2000/svg" xmlns:xlink="http://www.w3.org/1999/xlink">
    <title>icon_点赞3</title>
    <g id="控件" stroke="none" stroke-width="1" fill="none" fill-rule="evenodd">
        <g id="list/数据看板" transform="translate(-179.000000, -180.000000)" fill="#F4CA0C" fill-rule="nonzero">
            <g id="形状" transform="translate(178.000000, 178.000000)">
                <path d="M6.25,28 L2.05,28 C1.46921875,28 1,27.553125 1,27 L1,12 C1,11.446875 1.46921875,11 2.05,11 L6.25,11 C6.83078125,11 7.3,11.446875 7.3,12 L7.3,27 C7.3,27.553125 6.83078125,28 6.25,28 Z M24,28 L9,28 C8.446875,28 8,27.553125 8,27 L8,13.103125 C8,12.48125 8.21875,11.865625 8.61875,11.371875 L14.446875,3.1625 C15.046875,2.415625 15.9375,2 16.8625,2 L19,2 C19.6,2 21.0375,2.246875 21.41875,2.68125 C21.775,3.084375 21.934375,3.596875 21.865625,4.128125 C21.859375,4.178125 21.85,4.228125 21.834375,4.278125 L19.325,10 L26,10 C27.653125,10 29,11.275 29,12.846875 L29,23.309375 C29,25.89375 26.75625,28 24,28 Z M11.5,25.1 L23.0294118,25.1 C24.3908088,25.1 25.5,24.0225568 25.5,22.7001136 L25.5,13.3817614 C25.5,12.9669318 25.1294118,12.6272727 24.6764706,12.6272727 L17.2132353,12.6272727 C16.9558824,12.6272727 16.7113971,12.4964205 16.5569853,12.2736932 C16.4025735,12.0509659 16.3511029,11.7614205 16.4231618,11.4913636 L18.8783088,5.50835227 L17.1540441,5.5 C16.8838235,5.5 16.6290441,5.6225 16.4746324,5.83130682 L11.675,13.1423295 C11.5514706,13.3121591 11.5,13.4569318 11.5,13.6100568 L11.5,25.1 Z"></path>
            </g>
        </g>
    </g>
</svg>