<?xml version="1.0" encoding="UTF-8"?>
<svg width="28px" height="23px" viewBox="0 0 28 23" version="1.1" xmlns="http://www.w3.org/2000/svg" xmlns:xlink="http://www.w3.org/1999/xlink">
    <title>icon_阅读量2</title>
    <g id="控件" stroke="none" stroke-width="1" fill="none" fill-rule="evenodd">
        <g id="list/数据看板" transform="translate(-31.000000, -184.000000)" fill="#106DFF" fill-rule="nonzero">
            <g id="形状" transform="translate(30.000000, 180.000000)">
                <path d="M15,26.908667 C4.8185,26.908667 1,15.4543334 1,15.4543334 C1,15.4543334 4.8185,4 15,4 C25.1815,4 29,15.4543333 29,15.4543334 C29,15.4543334 25.1815,26.911 15,26.908667 Z M15,24.5753334 C23.1083333,24.5765 26.1486667,15.4543334 26.1486667,15.4543334 C26.1486667,15.4543334 23.1071667,6.33333335 15,6.33333335 C6.89166668,6.33333335 3.85133332,15.4543334 3.85133332,15.4543334 C3.85133332,15.4543334 6.89283332,24.5753334 15,24.5753334 L15,24.5753334 Z M17.0615,8.97466668 C15.6431515,9.61571185 14.8185527,11.1163849 15.0379256,12.657335 C15.2572985,14.198285 16.4679273,15.4092188 18.008822,15.6289799 C19.5497167,15.848741 21.0505975,15.0245203 21.692,13.6063334 C22.6383334,16.6802267 21.3682364,20.0034426 18.6129726,21.6626258 C15.8577088,23.321809 12.3263612,22.8899592 10.0521177,20.6157157 C7.77787414,18.3414721 7.34602431,14.8101245 9.00520751,12.0548607 C10.6643907,9.29959695 13.9876066,8.02949997 17.0615,8.97583335 L17.0615,8.97466668 Z"></path>
            </g>
        </g>
    </g>
</svg>