<?xml version="1.0" encoding="UTF-8"?>
<svg width="20px" height="26px" viewBox="0 0 20 26" version="1.1" xmlns="http://www.w3.org/2000/svg" xmlns:xlink="http://www.w3.org/1999/xlink">
    <title>icon_帖子</title>
    <g id="控件" stroke="none" stroke-width="1" fill="none" fill-rule="evenodd">
        <g id="list/数据看板" transform="translate(-182.000000, -93.000000)" fill="#41C5C5" fill-rule="nonzero">
            <g id="icon/帖子" transform="translate(178.000000, 90.000000)">
                <g id="编组" transform="translate(4.117647, 3.660131)">
                    <path d="M4.39215687,4.88017431 L8.78431372,4.88017431 L8.78431372,9.76034861 L4.39215687,9.76034861 L4.39215687,4.88017431 Z M10.9803922,6.10021789 L15.372549,6.10021789 L15.372549,8.54030503 L10.9803922,8.54030503 L10.9803922,6.10021789 Z M4.39215687,12.2004357 L15.372549,12.2004357 L15.372549,14.6405229 L4.39215687,14.6405229 L4.39215687,12.2004357 Z M4.39215687,17.0806101 L15.372549,17.0806101 L15.372549,19.5206972 L4.39215687,19.5206972 L4.39215687,17.0806101 Z" id="形状"></path>
                    <path d="M18.6666667,0 L1.09803922,0 C0.439215695,0 0,0.488017439 0,1.22004358 L0,23.1808279 C0,23.9128541 0.439215695,24.4008715 1.09803922,24.4008715 L18.6666667,24.4008715 C19.3254902,24.4008715 19.7647059,23.9128541 19.7647059,23.1808279 L19.7647059,1.22004358 C19.7647059,0.488017439 19.3254902,0 18.6666667,0 Z M17.5686275,21.9607843 L2.19607842,21.9607843 L2.19607842,2.44008717 L17.5686275,2.44008717 L17.5686275,21.9607843 L17.5686275,21.9607843 Z" id="形状"></path>
                </g>
            </g>
        </g>
    </g>
</svg>