<?xml version="1.0" encoding="UTF-8"?>
<svg width="215px" height="154px" viewBox="0 0 215 154" version="1.1" xmlns="http://www.w3.org/2000/svg" xmlns:xlink="http://www.w3.org/1999/xlink">
    <title>编组 16</title>
    <defs>
        <linearGradient x1="21.5658133%" y1="31.5118685%" x2="78.4357334%" y2="68.4895146%" id="linearGradient-1">
            <stop stop-color="#5C8DFF" stop-opacity="0.24" offset="0%"></stop>
            <stop stop-color="#D8E7FF" stop-opacity="0" offset="100%"></stop>
        </linearGradient>
        <linearGradient x1="79.4343262%" y1="32.9017096%" x2="4.54876479%" y2="32.9017096%" id="linearGradient-2">
            <stop stop-color="#C4D9FE" offset="0%"></stop>
            <stop stop-color="#87B1F5" offset="100%"></stop>
        </linearGradient>
        <linearGradient x1="0%" y1="52.9771376%" x2="100%" y2="48.2486777%" id="linearGradient-3">
            <stop stop-color="#B1C9FC" offset="0%"></stop>
            <stop stop-color="#DBE8FF" offset="100%"></stop>
        </linearGradient>
        <linearGradient x1="71.9724489%" y1="73.7372257%" x2="30.2932533%" y2="28.0003615%" id="linearGradient-4">
            <stop stop-color="#C4D9FE" offset="0%"></stop>
            <stop stop-color="#9CC2FC" offset="100%"></stop>
        </linearGradient>
        <linearGradient x1="8.82647814%" y1="56.8782118%" x2="100%" y2="46.6918457%" id="linearGradient-5">
            <stop stop-color="#E9F0FF" offset="0%"></stop>
            <stop stop-color="#BDD1FC" offset="100%"></stop>
        </linearGradient>
        <linearGradient x1="74.3259331%" y1="97.0478217%" x2="25.6740669%" y2="46.3183452%" id="linearGradient-6">
            <stop stop-color="#548EF1" offset="0%"></stop>
            <stop stop-color="#A2C2FB" offset="100%"></stop>
        </linearGradient>
        <linearGradient x1="0%" y1="55.2234563%" x2="100%" y2="46.9272648%" id="linearGradient-7">
            <stop stop-color="#B1C9FC" offset="0%"></stop>
            <stop stop-color="#DBE8FF" offset="100%"></stop>
        </linearGradient>
        <linearGradient x1="65.2597751%" y1="50%" x2="24.6710401%" y2="100%" id="linearGradient-8">
            <stop stop-color="#CBDEFE" offset="0%"></stop>
            <stop stop-color="#619DFE" offset="100%"></stop>
        </linearGradient>
        <linearGradient x1="102.745862%" y1="52.7295082%" x2="6.08783773%" y2="46.1763143%" id="linearGradient-9">
            <stop stop-color="#F9FBFF" offset="0%"></stop>
            <stop stop-color="#BDD1FC" offset="100%"></stop>
        </linearGradient>
    </defs>
    <g id="L2-(混合云)" stroke="none" stroke-width="1" fill="none" fill-rule="evenodd">
        <g id="空状态-Empty-States" transform="translate(-1302.000000, -2260.000000)">
            <rect fill="#FFFFFF" x="0" y="0" width="1680" height="4314"></rect>
            <g id="分组-2" transform="translate(90.000000, 1402.000000)">
                <g id="编组-16" transform="translate(1212.761879, 858.001005)">
                    <path d="M182.18504,138.678995 C193.16504,135.548995 202.49504,128.278995 208.16504,118.398995 C213.49504,108.998995 214.96504,98.0989946 213.42504,87.6889946 C212.18504,79.1589946 208.84504,70.6989946 202.64504,64.1089946 C196.71504,57.8289946 188.56504,53.5589946 181.77504,48.0189946 C164.57504,33.9289946 155.75504,11.3189946 134.33504,2.93899455 C123.65504,-1.23100545 110.89504,-0.95100545 100.45504,3.69899455 C89.43504,8.58899455 83.46504,16.9089946 79.93504,26.9489946 C76.31504,37.2189946 65.55504,43.7789946 55.04504,48.6589946 C44.58504,53.5189946 33.36504,57.2289946 23.90504,63.4789946 C3.75503998,76.8189946 -5.49496002,102.258995 3.36503998,123.138995 C12.24504,144.008995 39.23504,157.828995 63.77504,153.058995 C80.79504,149.748995 95.10504,138.828995 112.29504,136.208995 C135.46504,132.698995 159.75504,144.928995 182.18504,138.678995 Z" id="路径" fill="#E9F2FF"></path>
                    <path d="M110.64504,108.328995 C108.59504,108.328995 106.55504,108.218995 104.51504,108.108995 C102.45504,107.988995 100.41504,107.878995 98.37504,107.878995 C97.15504,107.878995 95.94504,107.918995 94.73504,108.028995 C88.69504,108.548995 82.24504,111.258995 80.31504,116.358995 C77.38504,124.088995 86.11504,132.628995 82.86504,140.268995 C80.19504,146.478995 71.27504,148.318995 66.00504,152.998995 C82.16504,149.308995 96.03504,139.108995 112.53504,136.598995 C115.54504,136.158995 118.57504,135.938995 121.60504,135.948995 C129.31504,135.948995 137.10504,137.178995 144.85504,138.408995 C152.62504,139.628995 160.35504,140.858995 167.94504,140.858995 C172.78504,140.908995 177.59504,140.298995 182.27504,139.048995 C193.22504,135.938995 202.52504,128.678995 208.17504,118.828995 C213.48504,109.458995 214.96504,98.5889946 213.42504,88.1889946 C212.18504,79.6889946 208.86504,71.2489946 202.66504,64.6789946 C202.12504,64.1089946 201.55504,63.5389946 200.98504,62.9989946 C199.98504,64.3089946 198.87504,65.5389946 197.68504,66.6789946 C191.55504,72.4889946 182.83504,76.0589946 173.88504,76.4489946 C173.491707,76.4623279 172.888373,76.4723279 172.07504,76.4789946 C168.43504,76.4789946 164.80504,76.0489946 161.18504,75.6189946 C157.57504,75.1089946 153.93504,74.8189946 150.27504,74.7489946 C142.31504,74.7489946 133.40504,77.6789946 130.71504,84.2889946 C128.53504,89.6089946 130.97504,95.8989946 128.19504,100.998995 C125.54504,105.838995 118.97504,107.988995 112.90504,108.278995 C112.15504,108.318995 111.39504,108.328995 110.64504,108.328995 Z" id="路径" fill="url(#linearGradient-1)"></path>
                    <g id="组_76" transform="translate(145.006303, 33.998995)" fill="#5C8DFF">
                        <path d="M4.18147368,14.46 L14.9314737,4.81 L9.28147368,0 L4.18147368,14.46 Z" id="路径"></path>
                        <path d="M5.83621053,15.5884211 L15.1362105,13.5484211 L15.9962105,8.80842105 L5.83621053,15.5884211 Z" id="路径"></path>
                        <path d="M0,3.86115789 L2.53,13.2911579 L3.77,0.951157895 L0,3.86115789 Z" id="路径"></path>
                    </g>
                    <g id="编组-13" transform="translate(23.005040, 47.998995)">
                        <g id="编组-12" transform="translate(14.160966, 0.000000)">
                            <path d="M0,0 C3.69684193,0.335117005 7.08140114,1.2055012 10.1536776,2.61115257 C10.9943654,4.91771284 11.6580279,7.39981883 12.1453323,10.0570631 C12.2782505,8.29143163 12.0709049,6.03417945 11.5232956,3.28530653 C14.3947834,4.79521371 16.9762464,6.80428779 19.2672964,9.31114334 C19.0855847,13.1672855 18.8622253,15.8084107 18.5964808,17.2350391 C18.6147606,17.1923863 19.1862449,13.8639214 20.9194909,11.2697421 C21.3023758,11.7608387 21.6758008,12.2675125 22.04,12.79 C23.1411743,14.3697669 24.0767676,16.0334525 24.84678,17.781057 C25.1043281,20.2101871 25.1373254,22.6085915 24.9455388,24.9764538 C25.29836,23.6311346 25.5586682,21.9793078 25.7264632,20.0209734 C27.9004959,26.277989 28.1116639,33.5315989 26.36,41.78 C17.8,40.1666667 10.1166667,32.6866667 3.31,19.34 C3.0327907,18.795814 2.77277988,18.2020443 2.52996755,17.5586912 L8.32318501,20.918537 L7.91611235,20.6697613 C5.63761174,19.2658779 3.72628345,17.8988039 2.18212749,16.5685394 C1.63754216,14.8974348 1.19267986,12.937356 0.848020921,10.6883889 L4.88118501,13.317537 L4.48376421,13.045267 C3.1081125,12.0948847 1.8748269,11.1663506 0.78390742,10.2596649 C0.356820997,7.31973079 0.0953851438,3.89922906 0,0 Z" id="形状结合" fill="#5592F1"></path>
                            <g id="路径-18" transform="translate(5.950082, 5.176329)" fill="#337AED">
                                <path d="M7.88,14.33 C10.85,18.45 17.88,29.88 19.03,33.33 C18.57,31.83 16.46,25.75 10.58,17.39 C8.3,14.15 6.92,11.77 5.07,8.75 C3.85,6.76333333 2.16,3.84666667 0,0 C3.19333333,6.69333333 5.82,11.47 7.88,14.33 Z" id="路径"></path>
                                <path d="M19.13,33.68 C19.11,33.58 19.07,33.46 19.03,33.33 C19.0766667,33.4833333 19.11,33.6 19.13,33.68 Z" id="路径"></path>
                            </g>
                        </g>
                        <g id="编组-11" transform="translate(6.314841, 54.079951)">
                            <path d="M7.89499822,2.10314347 C12.1276409,0.177903168 16.6993082,-0.426477987 21.61,0.29 C29.7433333,1.48333333 35.77,5.30666667 39.69,11.76 C35.7465013,14.1479119 30.690954,15.5077968 24.5233584,15.8396546 L27.4404794,13.436 L27.2296789,13.6053302 C26.2379365,14.3810278 25.103975,15.1366864 23.8277944,15.8723061 C23.051822,15.9041865 22.259464,15.92 21.45,15.92 C18.6877288,15.92 15.9833446,15.5523516 13.3368473,14.8170548 L19.0574794,11.843 L18.7910103,11.9770591 C16.8699402,12.9153131 14.559779,13.7117935 11.8605268,14.3665004 C10.4441425,13.8958243 9.04602361,13.3185519 7.66472545,12.6344488 L12.1024794,10.714 L11.7833761,10.8397651 C10.3976744,11.3727694 8.82620841,11.8697097 7.06897828,12.3305858 C4.65999893,11.0809287 2.30427697,9.50383162 3.55271368e-15,7.6 C2.14354993,5.52934444 4.39568076,3.88172628 6.75639248,2.65714552 C8.95266125,3.27413688 10.8136746,3.94503254 12.3403256,4.67 C11.6918534,4.02152778 10.1442218,3.1966305 7.69743068,2.19530816 Z" id="形状结合" fill="#5592F1"></path>
                            <path d="M23.0123107,8.80933506 C28.0589774,9.0626684 32.905644,9.75600173 37.5523107,10.8893351 C34.065644,9.4426684 29.065644,8.57600173 22.5523107,8.28933506 C16.325644,7.9426684 11.7923107,7.4226684 8.95231071,6.72933506 C12.4989774,7.8226684 17.185644,8.51600173 23.0123107,8.80933506 Z" id="路径" fill="#317AED"></path>
                        </g>
                        <g id="编组-10" transform="translate(0.000000, 23.221090)">
                            <path d="M1.90734863e-06,0.144489813 C6.64916419,-0.441908655 12.5311129,-0.154078743 17.6458479,1.00797955 C19.4041484,4.18314282 20.765095,7.79630357 21.7294615,11.8468491 C21.7863085,9.3517171 21.1169203,5.91654431 19.7212968,1.54133068 C23.5920866,2.64762362 26.9847969,4.3007422 29.8992465,6.49883173 C30.4135596,9.60397052 30.5590402,12.9286776 30.3355207,16.4733629 C31.0192764,14.4065001 31.3837215,11.4940767 31.4288559,7.73609254 C41.653103,16.450421 44.2600019,25.8485459 44.2600019,40.86449 C35.3000019,40.8778232 25.2466686,36.1844898 14.1000019,26.7844898 C12.4083758,25.1155584 10.8374355,23.274741 9.38718113,21.2620377 L19.6940733,22.7375607 L18.9873424,22.6284168 C14.980171,21.9815534 11.3612859,20.9153959 8.13068715,19.4299444 C6.24733567,16.5408525 4.588623,13.3307415 3.15524031,9.79970605 L12.3369989,11.776787 L11.639603,11.6186099 C8.35263943,10.8494782 5.35381383,9.80977792 2.64312623,8.499509 C1.64340732,5.88229334 0.762510623,3.09769817 1.90734863e-06,0.144489813 Z" id="形状结合" fill="#83AFF4"></path>
                            <path d="M22.1253141,18.1739677 C27.6753141,23.0339677 32.1953141,26.9839677 36.0553141,30.7339677 C39.1853141,33.7839677 41.1353141,35.9839677 44.2553141,40.2139677 C40.5753141,34.267301 35.0753141,28.0439677 27.7553141,21.5439677 C23.6953141,17.9339677 21.3553141,15.8139677 17.6653141,12.5339677 C15.6853141,10.7739677 12.9153141,8.15063434 9.35531406,4.66396767 C11.1686474,7.79730101 15.4253141,12.3006343 22.1253141,18.1739677 Z" id="路径" fill="#337CED"></path>
                        </g>
                    </g>
                    <g id="编组-14" transform="translate(55.005040, 48.998995)">
                        <path d="M60.306193,0 L112.736802,19.2485 L112.736802,70.25 L60.306193,51.0015 L60.306193,0 Z" id="矩形" fill="url(#linearGradient-2)"></path>
                        <path d="M14.472509,69 L63.4736041,88.2489 L52.9640178,102 L3.96292266,82.7511 L14.472509,69 Z" id="矩形备份" fill="url(#linearGradient-3)" opacity="0.43"></path>
                        <path d="M60.306193,0 L13.7368021,19.2485 L13.7368021,70.25 L60.306193,51.0015 L60.306193,0 Z" id="矩形" fill="url(#linearGradient-4)"></path>
                        <path d="M112.739193,69 L62.7368021,88.2489 L72.6821283,102 L122.684519,82.7511 L112.739193,69 Z" id="矩形备份-2" fill="url(#linearGradient-5)" opacity="0.61"></path>
                        <path d="M13.7368021,19 L62.7368021,38.2485 L62.7368021,89.25 L13.7368021,70.0015 L13.7368021,19 Z" id="矩形" fill="url(#linearGradient-6)"></path>
                        <path d="M13.7393596,19 L62.7368021,38.2479906 L48.9974424,65.0808969 L0,45.8329063 L13.7393596,19 Z" id="矩形" fill="url(#linearGradient-7)"></path>
                        <path d="M112.736802,19 L62.7368021,38.2485 L62.7368021,89.25 L112.736802,70.0015 L112.736802,19 Z" id="矩形" fill="url(#linearGradient-8)"></path>
                        <path d="M112.739802,19 L62.7368021,38.2494599 L74.7338021,64.9414317 L124.736802,45.6919718 L112.739802,19 Z" id="矩形" fill="url(#linearGradient-9)"></path>
                    </g>
                </g>
            </g>
        </g>
    </g>
</svg>