<?xml version="1.0" encoding="UTF-8"?>
<svg width="28px" height="27px" viewBox="0 0 28 27" version="1.1" xmlns="http://www.w3.org/2000/svg" xmlns:xlink="http://www.w3.org/1999/xlink">
    <title>icon_人数2</title>
    <g id="控件" stroke="none" stroke-width="1" fill="none" fill-rule="evenodd">
        <g id="list/数据看板" transform="translate(-31.000000, -92.000000)" fill="#FF960B" fill-rule="nonzero">
            <g id="icon/人数2" transform="translate(30.000000, 90.000000)">
                <g id="编组" transform="translate(1.000000, 2.500000)">
                    <path d="M21.3067436,14.8485962 C21.3957966,15.1137464 21.4404799,15.3917759 21.4389924,15.6714773 L21.4389924,18.2797166 C21.4409446,18.9727368 21.1670108,19.6380417 20.6776593,20.1287717 C20.1883078,20.6195017 19.523776,20.8953058 18.8307531,20.8953031 L16.2445552,20.8953031 C15.5515323,20.8953058 14.8870006,20.6195017 14.3976491,20.1287717 C13.9082976,19.6380417 13.6343638,18.9727368 13.6363159,18.2797166 L13.6363159,15.6714773 C13.6360402,15.3924413 13.6781545,15.1149825 13.7612175,14.8485962 C9.86722645,15.8918919 7.10469694,18.5221726 7.10469694,21.5491997 L7.10469694,23.5108895 C7.10870806,24.9509099 8.27293286,26.1184142 9.71293622,26.126476 L25.3917607,26.126476 C26.8317641,26.1184142 27.9959889,24.9509099 28,23.5108895 L28,21.5491997 C28,18.5001312 25.2374705,15.8918919 21.3361323,14.8485962 L21.3067436,14.8485962 Z M17.5229598,15.6714773 C16.8006856,15.6714773 16.2151666,16.2569963 16.2151666,16.9792705 L16.2151666,18.2797166 C16.2152788,19.0019115 16.8007649,19.5873067 17.5229599,19.5873067 C18.2451548,19.5873067 18.8306409,19.0019115 18.8307546,18.2797166 L18.8307546,16.9792705 C18.8312794,16.632221 18.6938395,16.2991935 18.4487011,16.0535293 C18.2090128,15.8173624 17.8887078,15.680839 17.5523485,15.6714773 L17.5229598,15.6714773 Z M17.5229598,14.3636841 C21.130412,14.3636841 24.0545789,11.1456311 24.0545789,7.18551562 C24.0545789,3.22540017 21.1598006,0 17.5523485,0 C13.9448963,0 11.0207295,3.21805302 11.0207295,7.18551562 C11.0207295,11.1529782 13.9595907,14.3636841 17.5523485,14.3636841 L17.5229598,14.3636841 Z" id="形状"></path>
                    <path d="M4.27604304,23.2757806 C4.04127413,22.8745137 3.91705308,22.4181915 3.91603253,21.9532931 L3.91603253,19.9842561 C3.91603253,17.1115193 6.53161899,14.6355287 10.3007085,13.4820257 C8.70990952,11.9425619 7.82022741,9.81794787 7.83941223,7.60430333 C7.83955116,6.23395879 8.17503227,4.8844671 8.81658357,3.67357648 C6.09813696,3.87929677 3.94542114,6.42875884 3.94542114,9.55129889 C3.91501948,11.4475103 4.76749044,13.2501878 6.25242718,14.4298085 C2.60823931,15.2012595 0,17.3980583 0,19.9842561 L0,21.9679874 C0,22.6902617 0.585518973,23.2757806 1.30779321,23.2757806 L4.27604304,23.2757806 Z" id="路径" opacity="0.3"></path>
                </g>
            </g>
        </g>
    </g>
</svg>