<svg xmlns:xlink="http://www.w3.org/1999/xlink" xmlns="http://www.w3.org/2000/svg" version="1.1" width="18px" height="18px">
  <g transform="matrix(1 0 0 1 -464 -141 )">
    <path d="M 4 16.5  C 4 16.845703125  3.720703125 17.125  3.375 17.125  L 0.875 17.125  C 0.529296875 17.125  0.25 16.845703125  0.25 16.5  L 0.25 7.125  C 0.25 6.779296875  0.529296875 6.5  0.875 6.5  L 3.375 6.5  C 3.720703125 6.5  4 6.779296875  4 7.125  L 4 16.5  Z M 1.5 7.75  L 1.5 15.875  L 2.75 15.875  L 2.75 7.75  L 1.5 7.75  Z M 17.75 14.193359375000002  C 17.75 15.808593750000004  16.34765625 17.125000000000004  14.625 17.125  L 5.25 17.125  C 4.904296875 17.125  4.625 16.845703125  4.625 16.5  L 4.625 7.814453125  C 4.625 7.42578125  4.76171875 7.041015625  5.01171875 6.732421875000001  L 8.654296875 1.6015625000000009  C 9.029296875 1.134765625  9.5859375 0.875  10.1640625 0.875  L 11.5 0.875  C 11.875 0.875  12.2265625 1.029296875  12.46484375 1.30078125  C 12.6875 1.552734375  12.787109375 1.873046875  12.744140624999998 2.205078125  C 12.740234374999998 2.236328125  12.734374999999998 2.2675781249999996  12.724609374999998 2.298828125  L 11.703125 5.875  L 15.875 5.875  C 16.908203125 5.875  17.75 6.671875  17.75 7.654296875  L 17.75 14.193359375000002  Z M 5.875 7.814453125  L 5.875 15.875  L 14.625 15.875  C 15.658203125 15.875  16.5 15.119140625  16.5 14.19140625  L 16.5 7.654296875  C 16.5 7.36328125  16.21875 7.125  15.875 7.125  L 10.875 7.125  C 10.6796875 7.125  10.494140625 7.033203125  10.376953125 6.876953125  C 10.259765625 6.720703125  10.220703125 6.517578125000001  10.275390625 6.328125  L 11.474609374999998 2.1308593749999996  L 10.166015624999998 2.1249999999999996  C 9.960937499999996 2.1249999999999996  9.767578125 2.2109374999999996  9.650390625 2.3574218749999996  L 6.0078125 7.486328125  C 5.9140625 7.60546875  5.875 7.70703125  5.875 7.814453125  Z M 11.5390625 2.130859374999999  L 11.533203125 2.130859374999999  L 11.5390625 2.130859374999999  Z " fill-rule="nonzero" fill="#6d7383" stroke="none" transform="matrix(1 0 0 1 464 141 )"/>
  </g>
</svg>