<svg xmlns:xlink="http://www.w3.org/1999/xlink" xmlns="http://www.w3.org/2000/svg" version="1.1" width="18px" height="11px">
  <g transform="matrix(1 0 0 1 -135 -2084 )">
    <path d="M 11.551025390625 5.5  C 11.551025390625 6.8775888671875  10.4088977050781 7.9943359375  9 7.9943359375  C 7.59110229492187 7.9943359375  6.448974609375 6.8775888671875  6.448974609375 5.5  C 6.448974609375 4.1224111328125  7.59110229492187 3.0056640625  9 3.0056640625  C 10.4088977050781 3.0056640625  11.551025390625 4.1224111328125  11.551025390625 5.5  Z M 7.714599609375 5.5  C 7.714599609375 6.1941408203125  8.29008325195312 6.7568359375  9 6.7568359375  C 9.70991674804688 6.7568359375  10.285400390625 6.1941408203125  10.285400390625 5.5  C 10.285400390625 4.8058591796875  9.70991674804688 4.2431640625  9 4.2431640625  C 8.29008325195312 4.2431640625  7.714599609375 4.8058591796875  7.714599609375 5.5  Z M 17.8710227050781 5.5  L 17.8628950195313 5.5  C 16.1389753417969 8.5548267578125  12.8125568847656 10.6240234375  8.99187231445313 10.6240234375  C 5.17118774414063 10.6240234375  1.84476928710938 8.5548267578125  0.120849609375 5.5  L 0.128977294921875 5.5  C 1.85289697265625 2.4451732421875  5.1793154296875 0.3759765625  9 0.3759765625  C 12.8206845703125 0.3759765625  16.1471030273438 2.4451732421875  17.8710227050781 5.5  Z M 16.3923771972656 5.5  C 14.806529296875 3.157992578125  12.0877294921875 1.6134765625  9 1.6134765625  C 5.9122705078125 1.6134765625  3.193470703125 3.157992578125  1.60762280273437 5.5  L 1.59951489257812 5.5  C 3.18534301757812 7.842007421875  5.90414282226562 9.3865234375  8.99187231445312 9.3865234375  C 12.0796018066406 9.3865234375  14.7984016113281 7.842007421875  16.3842495117188 5.5  L 16.392357421875 5.5  Z " fill-rule="nonzero" fill="#6d7383" stroke="none" transform="matrix(1 0 0 1 135 2084 )"/>
  </g>
</svg>