<?xml version="1.0" encoding="UTF-8"?>
<svg width="22px" height="22px" viewBox="0 0 22 22" version="1.1" xmlns="http://www.w3.org/2000/svg" xmlns:xlink="http://www.w3.org/1999/xlink">
    <title>icon_阅读量</title>
    <g id="控件" stroke="none" stroke-width="1" fill="none" fill-rule="evenodd">
        <g id="icon/阅读量" fill="#6D7383" fill-rule="nonzero">
            <g id="查看" transform="translate(3.000000, 4.000000)">
                <path d="M8,0 C12,0 15.3333333,2.88888889 16,6.66666667 C15.3333333,10.4444444 12,13.3333333 8,13.3333333 C4,13.3333333 0.666666667,10.4444444 0,6.66666667 C0.666666667,2.88888889 4,0 8,0 Z M8,11.8888889 C11.1111111,11.8888889 13.7777778,9.77777778 14.5555556,6.66666667 C13.7777778,3.11111111 10.1111111,0.777777778 6.55555556,1.66666667 C4,2.22222222 2.11111111,4.22222222 1.44444444,6.66666667 C2.22222222,9.66666667 4.88888889,11.8888889 8,11.8888889 Z M8,10 C6.11111111,10 4.66666667,8.55555556 4.66666667,6.66666667 C4.66666667,4.77777778 6.11111111,3.33333333 8,3.33333333 C9.88888889,3.33333333 11.3333333,4.77777778 11.3333333,6.66666667 C11.3333333,8.55555556 9.88888889,10 8,10 Z M8,8.55555556 C9,8.55555556 9.88888889,7.77777778 9.88888889,6.66666667 C9.88888889,5.66666667 9.11111111,4.77777778 8,4.77777778 C7,4.77777778 6.11111111,5.66666667 6.11111111,6.66666667 C6.11111111,7.66666667 7,8.55555556 8,8.55555556 L8,8.55555556 Z" id="形状"></path>
            </g>
        </g>
    </g>
</svg>